<?xml version="1.0" encoding="UTF-8" standalone="no"?>
<!-- Created with Inkscape (http://www.inkscape.org/) -->

<svg
   version="1.1"
   id="svg1627"
   width="752"
   height="752"
   viewBox="0 0 752 752"
   sodipodi:docname="social_x.svg"
   inkscape:version="1.2.1 (9c6d41e410, 2022-07-14)"
   xmlns:inkscape="http://www.inkscape.org/namespaces/inkscape"
   xmlns:sodipodi="http://sodipodi.sourceforge.net/DTD/sodipodi-0.dtd"
   xmlns="http://www.w3.org/2000/svg"
   xmlns:svg="http://www.w3.org/2000/svg">
  <defs
     id="defs1631" />
  <sodipodi:namedview
     id="namedview1629"
     pagecolor="#ffffff"
     bordercolor="#666666"
     borderopacity="1.0"
     inkscape:showpageshadow="2"
     inkscape:pageopacity="0.0"
     inkscape:pagecheckerboard="0"
     inkscape:deskcolor="#d1d1d1"
     showgrid="false"
     inkscape:zoom="0.87367021"
     inkscape:cx="168.82801"
     inkscape:cy="376.5723"
     inkscape:window-width="1600"
     inkscape:window-height="837"
     inkscape:window-x="-8"
     inkscape:window-y="-8"
     inkscape:window-maximized="1"
     inkscape:current-layer="g1633" />
  <g
     inkscape:groupmode="layer"
     inkscape:label="Image"
     id="g1633">
    <path
       id="path2123"
       style="fill:#00d200;stroke-width:1.33333;fill-opacity:1"
       d="M 376.0332 526.79102 C 348.67365 526.84835 321.77595 538.60373 303.62305 560.61133 C 282.29862 586.46393 276.24338 620.56316 287.31445 652.44531 C 298.3962 684.35823 326.19927 707.48335 362 714.56055 C 370.59632 716.25989 387.6382 715.34227 398.66602 712.58789 C 403.43267 711.39735 412.43268 707.95661 418.66602 704.94141 C 433.41118 697.80883 451.52593 680.28058 458.91016 666 C 474.6564 635.5479 473.98589 600.94224 457.09375 572.25391 C 451.10238 562.07864 434.56419 545.78169 423.99023 539.63281 C 409.03072 530.93368 392.44894 526.75661 376.0332 526.79102 z M 380.02148 566 C 393.13606 566 394.61009 566.27988 402.82812 570.32227 C 413.41262 575.52869 422.77171 585.06206 427.75195 595.70898 C 430.87981 602.39586 431.31572 604.97174 431.29492 616.66602 C 431.27404 628.40967 430.84327 630.88003 427.67383 637.38281 C 415.41467 662.53511 388.39996 673.95754 362.66602 664.86914 L 354 661.80859 L 340.73828 666.23633 C 325.52109 671.31883 326.18531 671.18593 327.00977 669 C 327.35552 668.08333 329.34722 662.0729 331.43555 655.64258 C 334.8307 645.18822 335.04978 643.4951 333.50391 639.64258 C 327.72655 625.24478 326.82673 615.73092 330.06641 603.29297 C 333.89886 588.57914 344.36978 576.14194 358.50586 569.51367 C 365.11302 566.41563 367.65885 566 380.02148 566 z M 364.19141 592.63086 C 362.45579 592.47999 360.52496 593.61618 358.33398 596.01953 C 353.53578 601.28286 353.6048 606.80378 358.57812 615.33398 C 365.40259 627.0392 374.08236 634.53969 385.48438 638.58789 C 394.39257 641.75068 393.83576 641.71569 399.26953 639.44531 C 407.96418 635.81247 408.95478 629.22225 401.38672 625.36133 C 394.54705 621.87198 393.09364 621.96181 389.49414 626.10156 C 386.21461 629.87336 387.46725 630.1568 376.72461 623.21875 C 374.92309 622.05526 372.26209 619.22892 370.8125 616.93945 C 368.36977 613.08143 368.33157 612.51898 370.26953 609.23828 C 372.18241 606.00003 372.16288 605.18055 370.04492 599.63477 C 368.33056 595.14577 366.4229 592.82484 364.19141 592.63086 z " />
    <path
       id="path2135"
       style="fill:#ffb380;stroke-width:1.33333"
       d="M 156.45898 284.24414 C 113.13006 283.49089 74.848309 312.19382 63.173828 354.78906 C 59.557954 367.98185 59.862003 391.20852 63.818359 404 C 69.018455 420.81266 75.434434 431.47344 87.974609 444.13477 C 103.87572 460.18948 121.19405 469.13029 141.95898 472.00586 C 160.11978 474.52081 183.35721 470.27141 199.09961 461.55664 C 221.90769 448.93041 237.56616 429.4998 245.50781 403.9668 C 249.48931 391.16605 249.78154 368.00432 246.12891 354.66602 C 235.22505 314.84839 201.2149 286.89131 160.66602 284.41016 C 159.25853 284.32403 157.85669 284.26844 156.45898 284.24414 z M 178.06445 337.5332 C 182.23716 337.53168 186.59247 338.57832 190.78711 340.86133 C 197.26372 344.38635 197.27035 344.38636 203.38086 342.05273 C 206.74368 340.76848 209.74308 339.96379 210.04492 340.26562 C 210.34676 340.56746 208.76632 343.03108 206.5332 345.74023 C 203.40055 349.54071 202.97256 350.66602 204.6582 350.66602 C 205.8598 350.66602 208.05389 350.01735 209.53516 349.22461 C 214.34711 346.64931 213.83383 349.14664 208.44336 354.53711 C 203.75141 359.22906 203.00576 360.8927 201.63086 369.73633 C 197.46933 396.50434 182.3927 416.17419 159.52734 424.66602 C 150.16397 428.14342 132.36205 430.07781 124 428.52734 C 118.9712 427.5949 101.4099 421.20237 100.69336 420.04297 C 100.34807 419.48427 103.95432 418.71354 108.70703 418.33203 C 114.25609 417.88662 120.0017 416.34154 124.76367 414.01172 L 132.17969 410.38281 L 125.59961 407.33594 C 120.05736 404.76816 112 397.03848 112 394.29102 C 112 393.8567 113.95066 393.28717 116.33398 393.02344 L 120.66602 392.54297 L 117.33398 390.98438 C 109.84502 387.4825 104 379.4615 104 372.68555 C 104 369.6913 104.33752 369.41999 106.57812 370.61914 C 110.74336 372.8483 112.72124 372.35083 110.36719 369.66602 C 104.49682 362.97079 102.36396 352.47567 105.30273 344.74609 L 106.60547 341.32031 L 112.73633 347.19531 C 120.17488 354.32271 131.50905 360.54422 142.05469 363.29102 C 153.7038 366.32521 154.66602 366.13272 154.66602 360.75391 C 154.66602 346.97428 165.54632 337.53777 178.06445 337.5332 z " />
    <path
       id="path2139"
       style="fill:#ff2a2a;stroke-width:1.33333;fill-opacity:1"
       d="M 375.32812 284.31641 C 373.94073 284.32987 372.54798 284.37292 371.15039 284.44727 C 326.72126 286.81064 290.87201 318.75056 283.22852 362.7832 C 277.93303 393.2894 287.01873 421.62957 309.30859 444.13477 C 325.46531 460.44754 343.06416 469.41706 364 472.00977 C 381.26927 474.14839 403.06633 470.55004 417.74609 463.13672 C 442.00641 450.88519 458.38992 431.1402 466.8418 403.9668 C 470.80248 391.23289 471.11021 368.0546 467.49609 354.66602 C 456.11019 312.48661 418.33749 283.8991 375.32812 284.31641 z M 352.66992 340.86328 C 358.93742 340.79932 365.49246 341.81675 369.67969 343.84375 C 379.57064 348.63189 380.007 349.95395 373.77148 356.18945 L 368.41406 361.54688 L 363.87305 358.77734 C 355.49915 353.67228 345.20888 355.89976 337.71094 364.43945 C 332.56599 370.29922 331.08201 377.0085 333.29492 384.39453 C 338.05317 400.27615 358.2184 405.98665 369.54492 394.66016 C 375.83714 388.36793 374.74958 386.84175 363.66602 386.39258 L 354 386 L 354 378.66602 L 354 371.33398 L 372 371.33398 L 390 371.33398 L 390.4082 377.73242 C 391.36072 392.63181 383.18171 406.71188 370 412.86328 C 362.66189 416.2877 349.35401 416.99471 342 414.35156 C 320.2028 406.5173 310.25804 381.87206 320.63281 361.39844 C 324.29615 354.16916 332.84784 345.973 339.81445 343.01172 C 343.09446 341.6175 347.79521 340.91303 352.66992 340.86328 z M 417.33398 358 C 421.9553 358 422.00381 358.06219 422.40625 364.33398 L 422.8125 370.66602 L 429.40625 370.66602 L 436 370.66602 L 436 376 L 436 381.33398 L 429.33398 381.33398 L 422.66602 381.33398 L 422.66602 388 L 422.66602 394.66602 L 417.40625 394.66602 L 412.14648 394.66602 L 411.74023 388.33398 L 411.33398 382 L 404.92383 381.58984 L 398.51562 381.18164 L 398.92383 376.25781 C 399.32722 371.40493 399.4228 371.3274 405.5957 370.92969 L 411.85938 370.52539 L 412.26367 364.26367 C 412.66261 358.07163 412.72025 358 417.33398 358 z " />
    <path
       style="fill:#000000;stroke-width:1.33333"
       d="M 138.66667,714.09349 C 117.2347,709.56236 100.26541,700.25921 86.161651,685.30849 50.826453,647.85132 51.895027,590.06928 88.589964,554 99.770908,543.00969 111.27715,535.94953 126,531.04541 c 9.44553,-3.14626 12.72733,-3.55302 28.66667,-3.55302 15.93933,0 19.22113,0.40676 28.66666,3.55302 49.4648,16.47651 76.93618,68.88276 61.5336,117.38575 -5.04001,15.87109 -11.93676,26.91765 -24.73258,39.61429 -9.15166,9.08074 -13.75658,12.48954 -22.80102,16.87855 -19.58249,9.50283 -41.14749,12.8734 -58.66666,9.16949 z"
       id="path2117" />
    <path
       style="fill:#000000;stroke-width:1.33333"
       d="m 584,130 c 0,-9.16667 0.37552,-16.66667 0.83448,-16.66667 0.45897,0 7.75209,3.68996 16.20695,8.19991 14.25286,7.6027 15.18744,8.3391 12.83218,10.11121 -2.6362,1.9835 -27.96572,15.02222 -29.18272,15.02222 -0.37998,0 -0.69089,-7.5 -0.69089,-16.66667 z"
       id="path2173" />
    <path
       style="fill:#ff0000;stroke-width:1.33333"
       d="m 576.40741,223.32619 c -11.88033,-2.58219 -29.08601,-11.09154 -38.79453,-19.18646 -30.42415,-25.3675 -41.97943,-65.7206 -29.5356,-103.14352 13.59588,-40.887545 58.32739,-69.35807 100.00609,-63.651461 38.471,5.267412 68.59042,30.831552 80.10348,67.988581 4.42714,14.28807 4.42402,37.74592 -0.007,51.96638 -5.82216,18.68534 -14.02922,31.57241 -28.39083,44.58042 -10.21449,9.25178 -28.64707,18.71722 -41.78911,21.45942 -11.47129,2.39358 -30.5467,2.38746 -41.59258,-0.0133 z"
       id="path2169" />
    <path
       style="fill:#c83737;stroke-width:1.33333"
       d="m 643.57072,165.88009 c 7.06701,-5.23381 7.76261,-8.32952 7.76261,-34.54676 0,-20.18394 -0.37094,-24.74397 -2.33294,-28.67902 -4.32356,-8.671474 -4.01208,-8.614833 -49.66706,-9.031879 C 552.23281,93.19218 550.95417,93.424995 546,103.33333 c -2.34344,4.68687 -2.66667,8 -2.66667,27.33334 0,29.18417 2.15156,35.07806 13.67103,37.4497 2.7476,0.56568 22.50247,0.92092 43.89969,0.7894 37.17474,-0.22848 39.07131,-0.36297 42.66667,-3.02568 z"
       id="path2171" />
    <path
       style="fill:#000000;stroke-width:1.33333"
       d="m 409.06667,107.73333 c 3.55296,-3.55296 0.17476,-10.399997 -5.13118,-10.399997 -3.8366,0 -7.16592,5.788567 -5.31668,9.243927 1.65508,3.09254 7.82831,3.77562 10.44786,1.15607 z"
       id="path2167" />
    <path
       style="fill:#000000;stroke-width:1.33333"
       d="m 372.15823,147.89805 c -15.78747,-3.38345 -18.01206,-25.61231 -3.21811,-32.15638 3.38433,-1.49705 7.03291,-2.21765 8.76269,-1.73065 7.53696,2.12195 10.47967,3.96947 13.1155,8.23434 7.81196,12.64001 -3.94727,28.80585 -18.66008,25.65269 z"
       id="path2165" />
    <path
       style="fill:#000000;stroke-width:1.33333"
       d="m 388.61121,154.30008 c 2.90283,-1.64415 7.10283,-5.58597 9.33334,-8.75959 3.48318,-4.95596 4.05545,-6.96074 4.05545,-14.20716 0,-7.2464 -0.57227,-9.25119 -4.05545,-14.20716 -13.36959,-19.022605 -40.74204,-14.52428 -47.33028,7.77814 -2.06004,6.97362 -0.0211,16.31905 4.99788,22.90749 7.04148,9.2434 22.6993,12.32205 32.99906,6.48828 z"
       id="path2163" />
    <path
       style="fill:#000000;stroke-width:1.33333"
       d="m 342.66667,171.85637 c -7.67714,-3.01233 -7.93806,-4.30333 -7.97035,-39.43624 -0.0163,-17.73559 0.54457,-33.756853 1.2464,-35.602802 2.56641,-6.75018 6.49408,-7.483995 40.05728,-7.483995 32.62497,0 36.80083,0.688946 39.96048,6.592812 0.835,1.560219 1.37285,15.431965 1.37285,35.407185 0,19.97523 -0.53785,33.84698 -1.37285,35.40719 -3.16389,5.91179 -7.33443,6.59789 -39.56093,6.50829 -16.71975,-0.0465 -31.89955,-0.67308 -33.73288,-1.39244 z"
       id="path2161" />
    <path
       style="fill:#800080;stroke-width:1.33333"
       d="M 354.76268,223.26267 C 337.6028,219.54129 317.53244,207.53465 305.33789,193.69537 287.9134,173.92076 278.99356,145.65379 282.35824,120.87288 285.59864,97.007431 293.24508,81.447207 310,64.622947 c 15.94181,-16.007784 36.3394,-25.500842 60,-27.924056 9.75856,-0.999431 27.74776,1.974417 40.12493,6.63317 26.97715,10.154174 49.90303,35.933418 57.51018,64.667939 3.07108,11.60037 3.0269,34.91996 -0.0884,46.66667 -4.40183,16.5978 -12.2874,30.1862 -24.82491,42.77818 -9.45471,9.49582 -13.55188,12.50944 -24.05857,17.69604 -6.96479,3.43815 -16.86326,7.12754 -21.99659,8.19866 -11.57985,2.41624 -30.56841,2.3814 -41.90399,-0.0769 z"
       id="path2157" />
    <path
       style="fill:#ff0000;stroke-width:1.33333"
       d="m 409.33333,181.22327 c 3.3,-0.75802 7.7239,-2.99335 9.83088,-4.9674 7.0612,-6.61572 7.50246,-9.26978 7.50246,-45.12541 0,-37.319676 -0.73512,-40.710696 -10.2171,-47.13046 l -4.92333,-3.333333 H 375.99183 340.4574 l -4.9228,3.755445 C 325.85239,91.808361 326,91.081397 326,131.37848 v 36.16243 l 3.72087,4.8783 c 4.0317,5.28586 7.38769,7.50695 13.61246,9.00918 6.22484,1.50224 59.28494,1.33734 66,-0.20512 z"
       id="path2159" />
    <path
       id="path2153"
       style="fill:#054cff;stroke-width:1.33333;fill-opacity:1"
       d="M 152.39453 36.705078 C 138.39388 36.986253 124.6613 40.826707 110.07617 48.3125 C 90.580254 58.318748 71.696124 80.637934 65.214844 101.33398 C 58.620472 122.39117 58.840533 142.59563 65.882812 162.8457 C 76.130108 192.31179 103.3007 216.60947 133.34375 223.17383 C 144.94844 225.70944 162.98113 225.77887 174.91211 223.33398 C 180.39595 222.21024 190.21247 218.61407 197.33398 215.11914 C 220.73392 203.63545 239.48245 180.48631 246.29492 154.66602 C 249.37136 143.0058 249.37136 119.66022 246.29492 108 C 238.41069 78.117558 214.72611 52.343964 186.07617 42.46875 C 174.33511 38.421779 163.28393 36.486387 152.39453 36.705078 z M 182.66602 73.333984 L 182.66602 84 L 182.66602 94.666016 L 174.71289 94.666016 C 165.70526 94.666016 164 96.244142 164 104.57812 L 164 109.33398 L 173.33398 109.33398 L 182.66602 109.33398 L 182.6543 114.33398 C 182.64793 117.08398 182.26517 122.48399 181.80273 126.33398 L 180.96094 133.33398 L 172.50586 133.33398 L 164.05078 133.33398 L 163.69141 163 L 163.33398 192.66602 L 151.69141 193.05078 L 140.05078 193.43555 L 139.69141 163.71875 L 139.33398 134 L 133.66602 133.58984 L 128 133.17969 L 128 121.33398 L 128 109.48633 L 133.66602 109.07617 L 139.33398 108.66602 L 140.07227 98.666016 C 140.90107 87.454743 142.14077 84.469337 148.01172 79.529297 C 153.4118 74.985423 159.8379 73.350697 172.33398 73.341797 L 182.66602 73.333984 z " />
    <path
       id="path2145"
       style="fill:#916f6f;stroke-width:1.33333"
       d="M 597.29492 284.69531 C 588.24313 284.70125 579.20499 285.50052 573.33398 287.0918 C 547.48223 294.09867 525.4974 311.90316 513.60352 335.46484 C 506.01233 350.50287 503.42309 361.63185 503.55469 378.66602 C 503.7644 405.80712 512.0556 425.62199 531.2168 444.7832 C 546.60698 460.17337 564.29757 469.19061 584.62695 472.00586 C 602.3353 474.45814 621.81771 471.1347 639.33398 462.67188 C 679.0019 443.5067 700.08781 396.99751 688.60352 354 C 680.02476 321.88089 653.74189 295.72686 621.33398 287.06055 C 615.41223 285.47703 606.34672 284.68938 597.29492 284.69531 z M 564.43945 334.9707 C 567.93427 334.87664 570.9179 336.61797 572.64258 339.95312 C 575.32084 345.13229 575.19899 346.96329 571.90234 351.1543 C 569.78946 353.84039 567.95516 354.66602 564.10938 354.66602 C 552.93049 354.66602 549.86845 340.19676 560.14648 335.93945 C 561.6262 335.32653 563.07192 335.00751 564.43945 334.9707 z M 553.33398 364 L 564.02539 364 L 574.71875 364 L 574.35938 393 L 574 422 L 564.60938 422.38672 C 559.44401 422.59912 554.79335 422.34804 554.27539 421.83008 C 553.75743 421.31212 553.33398 408.08974 553.33398 392.44531 L 553.33398 364 z M 585.33398 364 L 594.15625 364 C 602.8475 364 602.9676 364.0501 602.33984 367.33398 C 601.98938 369.16732 602.21992 370.66602 602.85156 370.66602 C 603.4832 370.66602 604 370.13414 604 369.48438 C 604 367.10842 613.26116 364 620.33789 364 C 625.70083 364 628.79366 364.79845 632.13672 367.04883 C 639.85354 372.24351 640.66602 375.38739 640.66602 400 L 640.66602 422 L 632.33398 422.39648 L 624 422.79297 L 623.96875 407.73047 C 623.93281 390.71363 622.54911 382.85291 619.15234 380.36914 C 615.77844 377.90207 610.10579 378.28106 606.48047 381.21484 C 603.47634 383.64595 603.31244 384.64946 602.875 403.21484 L 602.41602 422.66602 L 594.76367 422.66602 C 590.55467 422.66602 586.71154 422.26624 586.22266 421.77734 C 585.73376 421.28846 585.33398 408.08974 585.33398 392.44531 L 585.33398 364 z " />
    <path
       id="path2131"
       style="fill:#ff0000;stroke-width:1.33333"
       d="M 597.33398 527.51562 C 581.51459 527.54781 578.04047 527.97766 568.66602 531.07422 C 553.72693 536.00887 542.43719 543.03173 530.73047 554.66992 C 515.69841 569.61396 506.98462 587.57728 503.83008 610.12695 C 501.94802 623.58054 503.5414 637.77891 508.54883 652.17773 C 519.44731 683.5163 547.33462 707.24699 581.19336 713.99414 C 593.6469 716.47581 601.5166 716.33997 615.79102 713.39453 C 635.407 709.3469 648.67775 702.10283 663.49609 687.35352 C 673.88137 677.0166 676.548 673.40491 681.75586 662.625 C 693.22996 638.87442 694.95328 614.72325 686.84961 591.21289 C 681.50525 575.7079 675.70577 566.44532 663.99023 554.70117 C 652.45772 543.14046 641.14206 536.09276 626 531.03906 C 616.51185 527.87238 613.34525 527.48313 597.33398 527.51562 z M 602.62891 566.13086 C 609.55432 566.18257 612.00381 566.95904 619.10156 570.45312 C 634.38561 577.97713 641.09167 590.26296 639.60352 608.01367 C 638.24988 624.15985 631.22041 636.15802 619.77539 641.86133 C 610.57914 646.44401 602.11429 646.51654 595.55664 642.06641 C 592.90851 640.26933 590.50372 639.21867 590.21289 639.73242 C 589.92207 640.24615 588.91799 643.96667 587.98047 648 C 587.04296 652.03333 584.86029 658.33333 583.13086 662 C 581.40144 665.66667 578.59148 670.41205 576.88477 672.54492 C 574.18458 675.91931 573.66539 676.12059 572.89062 674.10156 C 570.91156 668.9442 572.25186 655.63197 576.64258 636.8418 C 580.12983 621.91822 581.01521 615.81808 580.22461 612.17383 C 577.82878 601.1304 583.54471 590.66602 591.97266 590.66602 C 600.07782 590.66602 601.90164 598.37483 597.33398 613.33398 C 595.87853 618.10065 594.68273 623.60687 594.67773 625.57031 C 594.66592 629.71129 600.09702 634.66602 604.64844 634.66602 C 609.65201 634.66602 616.48309 629.02982 620 621.99805 C 622.82895 616.34178 623.33398 613.48193 623.33398 603.10156 C 623.33398 589.11856 621.64497 585.56135 612.54102 580.35547 C 602.52832 574.62992 585.50665 576.87984 576.87695 585.07031 C 568.21731 593.28918 564.73248 608.81537 569.80859 616.5625 C 573.37588 622.00687 572.33678 629.33398 567.99609 629.33398 C 566.68386 629.33398 563.77245 627.24063 561.52734 624.68359 C 550.79859 612.46423 553.37151 591.63791 567.2793 578.12109 C 575.58889 570.04509 585.52718 566.33612 599.36133 566.14648 C 600.55999 566.13005 601.63956 566.12347 602.62891 566.13086 z " />
    <path
       style="fill:#000000;stroke-width:1.33333"
       d="m 170.26656,668.67009 c 6.64979,-4.0098 8.90577,-4.66372 16.09977,-4.66666 7.71844,-0.003 8.46548,-0.26422 9.64666,-3.37094 1.29306,-3.401 1.95641,-3.82705 7.98701,-5.12989 1.83333,-0.39607 4.50505,-1.57713 5.93716,-2.6246 2.45395,-1.79485 2.20161,-2.07751 -4.38356,-4.91037 -4.25825,-1.83186 -9.06275,-5.36362 -12.30087,-9.04232 -8.98014,-10.20199 -8.866,-15.48671 0.42983,-19.90008 6.55423,-3.11175 7.32067,-4.15534 4.85936,-6.61664 -0.9944,-0.9944 -2.90812,-1.05771 -6.01791,-0.19906 -2.50792,0.69247 -5.15177,0.8932 -5.87526,0.44607 -0.72348,-0.44715 -1.31542,-5.90147 -1.31542,-12.12075 0,-8.50989 -0.6296,-12.53176 -2.54456,-16.25464 -5.39888,-10.496 -15.03309,-16.28549 -27.07928,-16.27277 -9.62557,0.0107 -15.46378,1.85181 -21.40397,6.75181 -7.5747,6.24832 -9.43879,10.83655 -10.2547,25.24075 l -0.71749,12.66667 h -6.5391 c -8.68671,0 -9.44788,2.60434 -1.75565,6.00698 8.80583,3.89523 9.82945,5.63287 7.00631,11.89347 -3.10953,6.89571 -10.60786,14.00045 -18.40974,17.44341 -3.50066,1.54484 -6.020125,3.36656 -5.598801,4.04828 0.421323,0.68172 3.976871,2.1729 7.901211,3.31374 5.61905,1.6335 7.3099,2.77048 7.95754,5.35085 0.76184,3.0354 1.43393,3.27957 9.1303,3.31697 7.00148,0.034 9.56596,0.76524 16.30793,4.64998 11.31086,6.51733 20.10094,6.51158 30.93323,-0.0203 z"
       id="path2121" />
  </g>
</svg>
