<?xml version="1.0" encoding="UTF-8" standalone="no"?>
<!-- Created with Inkscape (http://www.inkscape.org/) -->

<svg
   version="1.1"
   id="svg2"
   width="640"
   height="640"
   viewBox="0 0 640 640"
   sodipodi:docname="LOGO1.svg"
   inkscape:version="1.2.1 (9c6d41e410, 2022-07-14)"
   xmlns:inkscape="http://www.inkscape.org/namespaces/inkscape"
   xmlns:sodipodi="http://sodipodi.sourceforge.net/DTD/sodipodi-0.dtd"
   xmlns="http://www.w3.org/2000/svg"
   xmlns:svg="http://www.w3.org/2000/svg">
  <defs
     id="defs6" />
  <sodipodi:namedview
     id="namedview4"
     pagecolor="#ffffff"
     bordercolor="#666666"
     borderopacity="1.0"
     inkscape:showpageshadow="2"
     inkscape:pageopacity="0.0"
     inkscape:pagecheckerboard="0"
     inkscape:deskcolor="#d1d1d1"
     showgrid="false"
     inkscape:zoom="0.72588931"
     inkscape:cx="138.45086"
     inkscape:cy="354.04847"
     inkscape:window-width="1600"
     inkscape:window-height="837"
     inkscape:window-x="-8"
     inkscape:window-y="-8"
     inkscape:window-maximized="1"
     inkscape:current-layer="g8" />
  <g
     inkscape:groupmode="layer"
     inkscape:label="Image"
     id="g8">
    <rect
       style="fill:#ffffff;fill-opacity:1;stroke:#000000;stroke-width:0;stroke-dasharray:none"
       id="rect1660"
       width="630.06488"
       height="630.06488"
       x="4.9675627"
       y="4.9675627" />
    <path
       style="fill:#0616f0;fill-opacity:1;stroke-width:1.05174"
       d="m 1.1986097,492.26396 c 0,-146.02121 0.03238,-148.37974 2.067102,-150.56377 1.136907,-1.22032 1.81165,-2.6321 1.499429,-3.13728 -0.312221,-0.50518 -0.177534,-0.78847 0.299303,-0.62953 0.476837,0.15895 1.93186,-0.77589 3.233384,-2.07741 1.301523,-1.30152 2.0606553,-2.36641 1.68696,-2.36641 -0.373695,0 0.4557743,-1.06488 1.8432643,-2.3664 4.322688,-4.05486 7.250599,-8.34707 6.541251,-9.58925 -0.374088,-0.65507 -0.334876,-0.8822 0.08714,-0.50472 0.808778,0.72342 9.01163,-7.61408 9.068963,-9.21783 0.01836,-0.51376 1.674851,-2.56782 3.681075,-4.56456 2.006224,-1.99675 3.647681,-4.13099 3.647681,-4.74276 0,-0.61177 0.986168,-1.72817 2.191484,-2.48091 1.231991,-0.76939 1.939281,-2.02583 1.615454,-2.86972 -0.316816,-0.82561 -0.18948,-1.38847 0.282971,-1.25078 0.47245,0.13767 2.583699,-1.87945 4.691665,-4.4825 2.107966,-2.60305 4.576904,-5.51361 5.486528,-6.46791 3.643703,-3.8227 6.660563,-8.62886 6.043304,-9.62761 -0.359386,-0.58149 -0.169582,-0.75822 0.421785,-0.39274 0.591367,0.36548 2.202657,-0.81954 3.580644,-2.63339 1.377987,-1.81385 3.092806,-3.89486 3.81071,-4.62444 1.039216,-1.05615 1.039216,-1.43404 0,-1.8539 -0.798229,-0.32249 -0.619956,-0.5596 0.458923,-0.61037 2.244272,-0.10563 6.315492,-5.20312 5.414995,-6.78001 -0.374081,-0.65507 -0.291267,-0.8386 0.184033,-0.40784 1.106805,1.0031 6.09664,-6.26189 5.24609,-7.63811 -0.351174,-0.56821 0.335998,-1.03312 1.527047,-1.03312 1.191038,0 2.165597,-0.35496 2.165657,-0.7888 7e-5,-0.43384 3.70152,-0.92362 8.22545,-1.0884 6.92817,-0.25235 8.64839,0.0332 10.90808,1.81067 2.46996,1.94287 2.70229,2.84262 2.928868,11.34282 0.13536,5.07791 0.275,9.85285 0.31032,10.61098 0.0385,0.82665 1.13644,0.30616 2.74293,-1.30034 2.10018,-2.10018 2.40305,-2.95442 1.40232,-3.95515 -0.70204,-0.70204 -1.26204,-1.77338 -1.24445,-2.38076 0.0176,-0.60737 0.52908,-0.24984 1.13663,0.79454 0.87259,1.49994 1.41825,1.6386 2.59736,0.66003 0.82098,-0.68137 1.49271,-1.67763 1.49271,-2.21393 0,-0.5363 1.64613,-2.67005 3.65807,-4.74169 2.01194,-2.07162 3.42884,-4.13751 3.14866,-4.59085 -0.28019,-0.45334 0.0851,-1.06529 0.8118,-1.35988 1.03561,-0.41984 1.01543,-0.75021 -0.0934,-1.52833 -1.08241,-0.75958 -0.79094,-1.14923 1.24113,-1.65925 1.46065,-0.3666 3.39874,-1.40957 4.30688,-2.3177 1.33446,-1.33446 1.65115,-1.36797 1.65115,-0.17468 0,1.12763 1.2178,1.3705 5.15433,1.028 5.92673,-0.51567 13.20996,2.22762 12.2886,4.62861 -0.30202,0.78708 -0.12261,1.43106 0.39872,1.43106 0.52131,0 1.22548,-0.87474 1.5648,-1.94386 0.93727,-2.95306 5.17952,-4.36656 13.10501,-4.36656 5.662,0 7.75392,0.45866 9.94201,2.17981 1.52414,1.19889 2.77117,1.67217 2.77117,1.05173 0,-0.62044 0.70992,-1.12807 1.57761,-1.12807 0.86768,0 1.5776,-0.47328 1.5776,-1.05173 0,-0.60823 3.34643,-1.05174 7.93582,-1.05174 7.0145,0 8.23431,0.29848 10.50677,2.57094 1.52307,1.52307 2.31506,3.23774 1.94314,4.20694 -0.34529,0.8998 -0.10391,1.63601 0.53646,1.63601 0.64035,0 1.10822,-0.35496 1.03972,-0.7888 -0.5205,-3.29645 3.32036,-7.94708 5.78289,-7.00211 1.05211,0.40373 1.70997,0.1079 1.71991,-0.77339 0.009,-0.86244 0.32187,-1.01101 0.7888,-0.37546 0.42498,0.57846 3.91796,1.05174 7.76216,1.05174 5.446,0 7.53624,0.46203 9.46562,2.09226 1.36189,1.15075 2.12421,1.66647 1.69405,1.14608 -0.43016,-0.52041 0.1685,-1.61203 1.33035,-2.42582 2.26164,-1.58411 17.54991,-1.63463 18.52233,-0.0612 0.69028,1.11689 6.69696,1.05766 6.69696,-0.066 0,-0.49077 3.29819,-0.98862 7.32929,-1.10632 7.22185,-0.21088 11.0533,0.88617 13.1854,3.77532 0.86732,1.17527 1.37211,1.06574 2.80588,-0.60878 0.96156,-1.12302 1.55875,-2.23139 1.3271,-2.46306 -0.23166,-0.23165 4.10486,-0.38997 9.6367,-0.35181 8.69471,0.0599 10.26024,0.34607 11.55082,2.11092 0.82111,1.12286 1.49293,1.47782 1.49293,0.78881 0,-0.68902 0.70992,-1.25276 1.5776,-1.25276 0.86769,0 1.5799,-0.35496 1.58271,-0.7888 0.008,-1.2896 13.61871,-1.49389 17.35588,-0.26052 3.81524,1.25915 4.68877,3.19481 4.71112,10.43937 l 0.0143,4.65723 3.0664,-4.11256 c 1.68652,-2.26191 2.84179,-4.47598 2.56726,-4.92017 -0.27445,-0.44416 -0.0298,-0.80758 0.54388,-0.80758 0.5736,0 1.34335,-0.94657 1.71054,-2.10348 0.36719,-1.1569 1.34564,-2.10347 2.17435,-2.10347 0.82869,0 1.50673,-0.40282 1.50673,-0.89517 0,-0.49234 6.33052,-0.99347 14.06784,-1.11362 13.37743,-0.20772 14.19897,-0.0993 16.73976,2.20984 2.35908,2.14399 2.74321,3.5166 3.2809,11.7235 0.33495,5.11236 0.87688,9.72865 1.20429,10.25841 0.32742,0.52977 1.78339,-0.44873 3.23548,-2.17445 1.4521,-1.72572 2.3619,-3.58794 2.02178,-4.13826 -0.34012,-0.55034 -0.0643,-1.34307 0.613,-1.76164 0.82092,-0.50736 0.94776,-0.30213 0.38052,0.6157 -0.54134,0.87589 -0.43859,1.12192 0.28244,0.6763 0.62333,-0.38524 1.44344,-2.11238 1.82247,-3.8381 0.77763,-3.5405 6.20781,-9.58863 10.68993,-11.90642 1.64086,-0.84852 5.67022,-1.87847 8.95412,-2.28876 5.11448,-0.63901 6.77344,-0.37184 11.568,1.86303 3.07849,1.43497 6.6036,3.5789 7.83356,4.7643 1.72746,1.66487 2.5345,1.8744 3.54688,0.92085 1.04108,-0.98058 1.0718,-0.76942 0.14937,1.02684 -0.91434,1.78053 -0.83813,2.38526 0.35844,2.84442 1.83287,0.70334 5.80398,-4.00891 5.80398,-6.88721 0,-1.11303 0.43286,-1.75617 0.9619,-1.42921 0.52905,0.32697 1.15979,-5e-5 1.40165,-0.72673 0.31772,-0.9546 4.60725,-1.42291 15.4584,-1.68769 17.37427,-0.42395 24.20587,0.82558 24.31415,4.44716 l 0.0667,2.22972 0.9121,-2.26075 c 0.51132,-1.26739 2.59229,-2.81527 4.73593,-3.52274 4.01851,-1.32623 18.50152,-1.11119 19.53983,0.29011 0.33296,0.44937 3.02574,0.29797 5.98394,-0.33645 7.41297,-1.5898 17.07533,-0.71165 18.84829,1.71301 1.10216,1.50731 2.09621,11.68615 1.50619,15.42299 -0.28743,1.82038 2.22265,0.6098 2.72592,-1.31467 0.30254,-1.15691 0.96815,-2.10348 1.47914,-2.10348 0.51099,0 0.92907,-0.97449 0.92907,-2.16554 0,-1.19105 0.47328,-1.87304 1.05174,-1.51553 1.36966,0.8465 1.33308,-0.13844 -0.10497,-2.82541 -0.87177,-1.62893 -0.8526,-1.97333 0.0778,-1.39827 0.67969,0.42007 2.26308,-0.20043 3.52308,-1.38062 5.04653,-4.72691 14.65263,-6.84758 22.17687,-4.89581 2.92606,0.759 5.75569,1.11082 6.28803,0.78182 0.53235,-0.32902 0.63021,-0.0519 0.21747,0.61603 -0.41274,0.66783 -0.28554,1.21424 0.28268,1.21424 0.56821,0 2.54739,1.27419 4.3982,2.83153 3.24553,2.73094 3.41655,2.76117 4.81351,0.85072 0.79663,-1.08945 1.44841,-2.78174 1.44841,-3.76066 0,-2.09613 2.25947,-2.64309 12.25796,-2.96738 6.49363,-0.21061 7.5895,0.0496 10.13241,2.40633 1.98091,1.83586 2.85129,2.17624 2.85129,1.11511 0,-0.84007 0.35496,-1.45096 0.7888,-1.35755 0.43384,0.0934 2.19006,-0.40608 3.90272,-1.10997 4.4747,-1.83909 16.37855,-1.14403 18.82724,1.09931 2.18052,1.99767 2.11395,3.63426 -0.7608,18.70001 -0.93063,4.87724 -1.47909,9.08067 -1.21879,9.34098 0.26031,0.2603 0.0556,1.25357 -0.45473,2.20726 -0.5104,0.9537 -1.47968,5.26932 -2.15396,9.59028 -2.10621,13.49709 -3.09677,19.24819 -4.25155,24.68405 -1.65078,7.77069 -1.83792,10.73181 -2.03679,32.22848 -0.16548,17.88657 -0.36261,19.80216 -2.24581,21.82352 -1.13541,1.21873 -2.68252,2.21587 -3.43802,2.21587 -0.75549,0 -2.23024,0.94656 -3.27724,2.10347 -1.04699,1.15691 -1.63003,2.10347 -1.29564,2.10347 0.33438,0 -0.65715,1.329 -2.2034,2.95333 -1.54626,1.62432 -3.7156,4.10905 -4.82079,5.52162 -1.10517,1.41255 -3.33852,4.10613 -4.96299,5.98573 -1.82352,2.10989 -2.72696,4.12192 -2.36126,5.25868 0.45053,1.40042 0.34852,1.50003 -0.42605,0.41604 -0.7878,-1.1025 -1.87792,-0.29949 -4.81467,3.54666 -2.08795,2.73451 -3.53226,5.39902 -3.20959,5.92112 0.32268,0.52211 0.14792,0.81923 -0.38833,0.66029 -0.98889,-0.29309 -5.24867,4.62552 -17.51145,20.21986 -2.04693,2.60304 -4.55773,5.79401 -5.57955,7.09103 -1.02183,1.29702 -1.71981,3.19015 -1.55107,4.20695 0.23441,1.41259 0.0811,1.51487 -0.65003,0.43359 -0.71755,-1.06127 -2.22848,0.25371 -6.04228,5.25867 -2.797,3.67061 -5.35068,6.91046 -5.67484,7.19968 -0.32417,0.28923 -2.71265,3.12892 -5.30775,6.31042 -2.59509,3.1815 -5.07331,5.94231 -5.50715,6.13512 -0.43384,0.19283 -0.79923,0.90275 -0.81198,1.57761 -0.0127,0.67486 -2.0242,3.43906 -4.46988,6.14265 -2.44568,2.70359 -5.39326,6.23763 -6.55017,7.85342 -1.15691,1.61578 -3.58649,4.60984 -5.39907,6.65347 -1.81259,2.04361 -5.3622,6.37687 -7.88802,9.62945 -5.45232,7.02107 -20.60451,26.10514 -25.15906,31.68762 -1.78225,2.1845 -2.88481,4.48705 -2.46998,5.15825 0.42553,0.68852 0.29038,0.92877 -0.31277,0.556 -1.2721,-0.7862 -11.42018,10.61308 -11.2137,12.59632 0.0793,0.76175 -0.27566,1.12552 -0.7888,0.80838 -0.51315,-0.31714 -0.933,-0.19024 -0.933,0.28199 0,0.47224 -2.61326,3.93147 -5.80723,7.68716 -3.19399,3.7557 -6.15199,7.30676 -6.57335,7.89124 -0.42137,0.58448 -2.65924,3.41409 -4.97306,6.28801 -2.31382,2.87391 -4.04918,5.70867 -3.85637,6.29945 0.19283,0.59078 0.0182,0.74178 -0.38801,0.33556 -0.40623,-0.40624 -2.22047,1.07328 -4.03166,3.28782 -1.81118,2.21453 -4.94954,6.03865 -6.97413,8.49804 -2.02459,2.45939 -4.10836,5.35773 -4.63059,6.44074 -0.52224,1.083 -1.38238,1.9691 -1.91142,1.9691 -0.52904,0 -0.66235,1.06488 -0.29625,2.36641 0.52966,1.88302 0.4328,2.04415 -0.47424,0.7888 -1.00059,-1.38483 -1.26888,-1.35904 -2.19557,0.21102 -0.58063,0.98374 -1.75518,2.48809 -2.61009,3.34302 -0.85489,0.85491 -1.55436,2.06148 -1.55436,2.68125 0,0.61978 -0.45055,1.12686 -1.00121,1.12686 -1.22957,0 -8.01865,9.65413 -7.63602,10.85847 0.1515,0.47684 -0.12897,0.61702 -0.62328,0.31152 -1.40316,-0.86719 -8.91149,9.5781 -8.00944,11.14242 0.42868,0.74341 0.42325,1.03192 -0.0121,0.64115 -1.02656,-0.92156 -6.90789,4.30855 -6.90789,6.14303 0,0.77206 -0.47328,1.40375 -1.05174,1.40375 -0.57845,0 -1.05173,0.73786 -1.05173,1.63968 0,0.90182 -0.43921,1.36822 -0.97601,1.03646 -0.53682,-0.33177 -1.27863,0.35022 -1.64848,1.51553 -0.64445,2.03049 -1.54579,2.11875 -21.63631,2.11875 -20.66583,0 -20.96385,-0.0318 -20.96385,-2.23225 0,-1.85764 -0.2628,-2.01415 -1.56602,-0.93257 -0.86131,0.71483 -1.31018,1.71364 -0.99749,2.2196 0.3238,0.5239 -71.89609,0.92805 -167.76345,0.93881 L 1.1985927,640.609 Z M 400.53817,361.93271 c 1.84854,-1.12712 4.15107,-3.25512 5.11671,-4.72888 2.37644,-3.6269 3.07034,-3.3937 4.54473,1.5274 1.02655,3.42634 1.74047,4.20694 3.84755,4.20694 h 2.58713 v -32.07794 -32.07795 h -9.46563 -9.46562 v 8.44777 c 0,7.65134 0.21058,8.52569 2.23363,9.27406 2.11392,0.78199 2.22394,1.47067 2.05292,12.84987 -0.15363,10.22203 -0.4781,12.32419 -2.1655,14.02974 -1.87862,1.8988 -2.12912,1.91157 -4.68227,0.23869 l -2.69746,-1.76745 -0.0967,-31.79076 c -0.0531,-17.48492 -0.17147,-33.21061 -0.26293,-34.94598 -0.1134,-2.15158 0.59628,-3.77268 2.23107,-5.09643 2.2323,-1.80756 2.57625,-1.82399 4.99574,-0.23869 1.42911,0.93639 2.62964,2.51987 2.66783,3.51883 0.0382,0.99896 0.15651,4.65598 0.26293,8.12671 l 0.1935,6.31041 h 7.36215 7.36215 l -0.29722,-7.36215 c -0.81291,-20.13598 -5.8947,-29.06146 -17.44803,-30.64502 -8.29561,-1.13704 -18.62586,5.7489 -20.16458,13.44129 -0.27278,1.36368 -0.82419,3.66263 -1.22537,5.10877 -1.21154,4.36741 -1.54286,69.00837 -0.38438,74.99656 1.90652,9.85486 2.12003,10.55665 3.47299,11.41531 0.73662,0.4675 0.97344,0.85725 0.52626,0.86611 -1.77329,0.0351 2.69588,5.16165 5.8599,6.72182 4.54016,2.23874 8.98974,2.11963 13.03845,-0.34903 z m -10.65553,-19.72096 c -0.57076,-1.49894 -0.44996,-1.61974 0.58876,-0.58876 0.71877,0.71343 1.04192,1.56208 0.7181,1.88589 -0.32382,0.32382 -0.91191,-0.25989 -1.30686,-1.29713 z m 163.09501,19.60929 c 4.12055,-1.87714 5.18382,-3.0725 7.90454,-8.88654 2.82413,-6.03503 3.20545,-8.10893 3.75249,-20.4091 0.73129,-16.44294 0.50476,-16.92234 -7.98536,-16.89924 -3.25529,0.008 -6.48785,0.37787 -7.18348,0.82004 -0.86012,0.54672 -1.31579,5.01379 -1.4242,13.962 -0.15756,13.0042 -0.18835,13.16047 -2.63222,13.36272 -1.36003,0.11256 -3.08555,0.33003 -3.83448,0.48327 -1.08883,0.22278 -1.42165,-6.96178 -1.66093,-35.85478 -0.3111,-37.56682 -0.15485,-39.06574 4.07209,-39.06574 3.14915,0 4.11517,3.44026 4.11517,14.65517 v 10.5865 h 7.88802 7.88802 l -0.0114,-12.3579 c -0.0172,-18.67269 -2.68607,-25.52909 -11.78569,-30.27788 -6.23512,-3.2539 -10.61934,-3.27245 -16.61607,-0.0704 -3.69493,1.97304 -5.39996,3.85244 -7.87175,8.67682 l -3.1552,6.15827 -0.3341,38.23321 c -0.18376,21.02826 0.009,39.01295 0.4299,39.96597 0.42021,0.95301 0.6871,2.09303 0.59309,2.53337 -0.34229,1.60348 5.33881,11.2682 6.28129,10.68573 0.53347,-0.32971 0.8399,0.0116 0.68096,0.75842 -0.43751,2.05572 6.48964,5.10539 11.60073,5.10724 2.49018,9e-4 6.67003,-0.97436 9.28856,-2.16723 z m -17.49721,-0.88281 c 0,-1.09216 2.00062,-2.67322 2.59324,-2.04939 0.1924,0.20254 -0.31237,0.97851 -1.12171,1.72439 -0.80934,0.74587 -1.47153,0.89213 -1.47153,0.325 z m -424.06997,-6.67688 -0.30546,-8.67682 -7.6349,-0.0975 c -4.199208,-0.0536 -7.985448,-0.44953 -8.413888,-0.87983 -0.42845,-0.43027 -0.77899,-21.68406 -0.77899,-47.23062 V 250.9283 l -7.62508,-0.30901 -7.62509,-0.30901 v 56.31394 56.31395 h 16.34444 16.344438 z M 135.8208,306.6703 v -56.26787 h -7.88802 -7.88802 v 56.26787 56.26787 h 7.88802 7.88802 z m 25.71449,53.35413 c 0.35198,-1.60256 0.57595,-12.60635 0.49772,-24.45286 -0.17819,-26.98178 -0.0705,-29.60673 1.10013,-26.7978 0.89439,2.14619 4.49101,24.79103 6.34771,39.96597 1.8854,15.40961 1.13001,14.33394 9.81732,13.97969 l 7.53182,-0.30713 v -55.742 -55.742 l -7.62508,-0.30901 -7.62509,-0.30901 v 27.04063 c 0,24.50796 -0.63585,32.40846 -1.74873,21.72836 -0.22799,-2.18794 -1.38213,-9.89408 -2.56478,-17.12476 -1.18264,-7.23069 -2.391,-15.73468 -2.68523,-18.89775 -0.29425,-3.16309 -0.95301,-6.53215 -1.46393,-7.48681 -0.51092,-0.95466 -0.60435,-2.06035 -0.20761,-2.45708 1.5031,-1.50309 -2.63025,-2.67882 -9.47216,-2.69434 l -7.09922,-0.0161 v 56.26787 56.26787 h 7.27858 c 7.09812,0 7.29446,-0.0722 7.91855,-2.91374 z m 0.66194,-94.45947 c 0.0505,-1.22522 0.29968,-1.47443 0.63542,-0.63543 0.30381,0.75922 0.26646,1.66635 -0.083,2.01583 -0.3495,0.34948 -0.59806,-0.2717 -0.5524,-1.3804 z m 51.91715,94.61149 c 0.38122,-1.51895 0.64327,-12.52274 0.58232,-24.45286 -0.13621,-26.661 -0.18152,-25.37222 0.89218,-25.37222 0.76594,0 2.05616,6.81929 3.97983,21.03472 0.27397,2.02459 1.17925,7.23069 2.01173,11.5691 0.83248,4.33841 1.7825,9.78114 2.11117,12.09496 1.15402,8.1242 0.86659,7.88802 9.59966,7.88802 7.69071,0 7.91407,-0.0717 7.36764,-2.36641 -0.30994,-1.30152 -1.34184,-6.62593 -2.2931,-11.83202 -0.95127,-5.2061 -2.41811,-13.01524 -3.25965,-17.35365 -5.23727,-26.99996 -5.94401,-32.65036 -4.47259,-35.75902 0.75731,-1.59997 3.96898,-17.88452 4.66707,-23.66406 0.2096,-1.73536 0.81836,-5.04833 1.35279,-7.36215 0.53444,-2.31382 1.27508,-6.38544 1.64585,-9.04805 l 0.67415,-4.84112 -7.73473,-0.20472 -7.73472,-0.20472 -1.19587,7.1493 c -0.65773,3.93213 -2.16485,13.06533 -3.34917,20.29601 -2.72463,16.63497 -3.02241,17.87951 -4.27798,17.87951 -0.64153,0 -1.0317,-8.31032 -1.0317,-21.97393 0,-24.86157 0.62532,-23.25071 -9.02578,-23.25071 h -5.69853 v 56.26787 56.26787 h 7.24814 c 6.94686,0 7.27695,-0.1148 7.94129,-2.76172 z m 48.71274,-53.76908 0.27216,-56.00494 h -7.89724 -7.89724 v 56.31395 56.31394 l 7.62509,-0.30901 7.62509,-0.30901 z m 26.54604,31.0262 c -0.0854,-32.13332 -0.11575,-30.7048 0.63663,-29.95242 0.97874,0.97872 3.37514,14.5092 4.67065,26.37112 0.64156,5.87429 1.97747,14.70341 2.9687,19.62028 l 1.80223,8.93975 7.58227,0.33165 7.58226,0.33163 v -46.28302 c 0,-29.72084 -0.37636,-46.51561 -1.05173,-46.93302 -0.57846,-0.3575 -1.04449,-1.21368 -1.03564,-1.90261 0.009,-0.75263 0.42304,-0.62291 1.03564,0.32501 0.7645,1.18299 1.01952,0.65685 1.01952,-2.10347 0,-2.76033 -0.25502,-3.28647 -1.01952,-2.10347 -0.6126,0.94791 -1.02596,1.07764 -1.03564,0.325 -0.008,-0.68893 0.45718,-1.5451 1.03564,-1.90261 0.57845,-0.3575 1.05173,-3.15603 1.05173,-6.21894 v -5.56895 l -7.62958,-0.20193 -7.62959,-0.20194 -0.20243,25.02713 c -0.11134,13.76492 -0.22764,25.64666 -0.25843,26.40387 -0.12479,3.06764 -2.15948,-0.18072 -2.15948,-3.44757 0,-1.93836 -0.95268,-9.8379 -2.11708,-17.55452 -1.1644,-7.71661 -2.59528,-17.31478 -3.17975,-21.32925 -0.58446,-4.01449 -1.32696,-7.5641 -1.64998,-7.88802 -0.32302,-0.32394 -4.09822,-0.68072 -8.38934,-0.79285 l -7.80204,-0.20387 v 54.54519 c 0,29.99985 0.28727,55.29382 0.6384,56.2088 0.49708,1.29539 2.25046,1.66363 7.92135,1.66363 h 7.28297 l -0.0677,-25.5046 z m 49.88346,19.98299 c 0.3312,-3.03689 0.72021,-7.1781 0.86449,-9.20269 l 0.26232,-3.68108 h 5.78455 5.78455 l 0.26222,5.78455 c 0.14421,3.1815 0.52062,7.32271 0.83645,9.20269 l 0.57425,3.41814 h 6.92051 6.92051 l -0.53423,-8.67682 c -0.73072,-11.86829 -3.67865,-53.10732 -4.94324,-69.15164 -0.5699,-7.23068 -1.06899,-13.85662 -1.1091,-14.7243 -0.0401,-0.86768 -0.34059,-5.71881 -0.66778,-10.78029 l -0.59488,-9.20269 h -14.08678 -14.08678 l 0.006,5.52161 c 0.009,7.63083 -4.11927,67.42629 -6.33598,91.76396 -1.53192,16.81938 -2.1754,15.25017 6.2535,15.25017 h 7.28648 l 0.60215,-5.52161 z m 5.9422,-29.13069 -3.59851,-0.58085 0.22347,-7.88802 c 0.12292,-4.33841 0.65731,-14.04068 1.18753,-21.56059 0.53023,-7.51991 1.05134,-16.98553 1.15802,-21.03472 0.10669,-4.04918 0.38841,-7.7124 0.62605,-8.14047 0.71698,-1.2916 3.25311,1.71317 2.6883,3.18504 -0.51031,1.32987 1.30315,31.95114 2.80254,47.32223 0.84609,8.6738 0.3216,9.57047 -5.0874,8.69738 z m 116.43526,24.39788 -0.30102,-10.25443 h -8.41389 -8.41388 v -13.54947 -13.54947 l 7.36215,-0.1231 7.36215,-0.12309 0.29968,-10.14369 c 0.22862,-7.73796 -0.0208,-10.13066 -1.05174,-10.08875 -0.74328,0.0302 -4.30942,-0.0196 -7.92476,-0.11073 l -6.57335,-0.16568 v -11.5691 -11.56909 l 7.62508,-0.12455 c 4.1938,-0.0685 7.98005,-0.0685 8.41389,0 0.43384,0.0685 0.7888,-4.60826 0.7888,-10.39281 v -10.51736 h -14.63828 c -8.05106,0 -15.37161,0.2814 -16.26789,0.62534 -1.44236,0.55349 -1.63531,7.0188 -1.67927,56.26787 l -0.0496,55.64253 h 16.88151 16.8815 z m 25.49849,-17.87952 c 0.0303,-26.68255 0.86294,-32.86753 2.54657,-18.91704 0.40236,3.33393 1.16457,5.79407 1.6938,5.46699 0.52923,-0.32709 0.70289,0.0812 0.3859,0.9072 -0.52713,1.37369 0.39738,8.56654 4.07923,31.73703 l 1.33697,8.41389 7.60013,0.30935 7.60013,0.30934 -0.0513,-56.35966 -0.0512,-56.35966 -7.38111,0.30832 -7.38111,0.30831 -0.0429,26.55633 c -0.041,25.32714 -0.93858,33.02298 -2.45338,21.03472 -0.38374,-3.03689 -1.6253,-11.20099 -2.75904,-18.14245 -1.13375,-6.94146 -2.35433,-16.5254 -2.71243,-21.29765 l -0.65106,-8.67682 -8.52061,-6e-5 -8.52061,-8e-5 0.17205,6.04756 c 0.0947,3.32614 0.21294,28.64672 0.26293,56.26793 l 0.0909,50.22039 h 7.36215 7.36215 l 0.032,-28.13394 z m 112.479,7.36216 c -0.0976,-19.71578 0.0835,-21.70749 3.56133,-39.17717 2.01527,-10.12295 4.18338,-22.17684 4.81801,-26.78641 0.63463,-4.60956 1.59167,-10.0523 2.12674,-12.09496 0.53507,-2.04266 1.21961,-5.91048 1.52121,-8.59516 l 0.54836,-4.88124 -6.53838,-0.0889 c -7.24171,-0.0984 -8.58886,0.44645 -8.75432,3.54092 -0.0618,1.15691 -0.89918,8.01949 -1.86072,15.25017 -0.96154,7.23069 -1.84239,14.44823 -1.95746,16.03898 -0.33181,4.58733 -2.46899,3.35634 -2.73895,-1.57761 -0.13451,-2.45843 -1.00274,-9.91261 -1.9294,-16.56484 -0.92665,-6.65223 -1.73737,-13.17818 -1.80159,-14.50213 -0.11151,-2.29879 -0.44828,-2.3935 -7.47892,-2.10347 -8.29489,0.34217 -7.76037,-0.57042 -6.33821,10.82106 0.43329,3.47072 1.06045,6.76367 1.39369,7.31766 0.33322,0.55398 0.71518,1.97382 0.84879,3.15521 0.1336,1.18137 1.23767,7.82733 2.45349,14.76879 7.30755,41.7211 7.42679,42.67813 7.42679,59.61038 v 16.64047 h 7.40117 7.40117 l -0.10275,-20.77178 z"
       id="path293" />
  </g>
</svg>
